<?xml version="1.0" encoding="UTF-8"?>
<!DOCTYPE svg PUBLIC "-//W3C//DTD SVG 1.1//EN" "http://www.w3.org/Graphics/SVG/1.1/DTD/svg11.dtd">
<!-- Creator: CorelDRAW 2017 -->
<svg xmlns="http://www.w3.org/2000/svg" xml:space="preserve" width="65.6827mm" height="13.3595mm" version="1.1" style="shape-rendering:geometricPrecision; text-rendering:geometricPrecision; image-rendering:optimizeQuality; fill-rule:evenodd; clip-rule:evenodd"
viewBox="0 0 6515.76 1325.27"
 xmlns:xlink="http://www.w3.org/1999/xlink">
 <defs>
  <style type="text/css">
   <![CDATA[
    .fil8 {fill:#FEFEFE}
    .fil1 {fill:#252322}
    .fil3 {fill:#006DF0}
    .fil6 {fill:#91DC5A}
    .fil4 {fill:#D80027}
    .fil5 {fill:#FFDA44}
    .fil7 {fill:#FEFEFE;fill-rule:nonzero}
    .fil0 {fill:#252322;fill-rule:nonzero}
    .fil2 {fill:#686868;fill-rule:nonzero}
    .fil9 {fill:#FFDA44;fill-rule:nonzero}
   ]]>
  </style>
 </defs>
 <g id="Layer_x0020_1">
  <metadata id="CorelCorpID_0Corel-Layer"/>
  <g id="_3018769903200">
   <path class="fil0" d="M1904.38 211.76l465.94 0 0 107.38 -402.63 0 0 111.45 369.96 0c17.54,0 32.67,6.49 45.52,19.34 12.74,12.99 19.22,28.23 19.22,45.76l0 196.76c0,17.77 -6.48,33.02 -19.22,45.77 -12.86,12.61 -27.98,18.97 -45.52,18.97l-498.37 0 0 -107.38 434.59 0 0 -111.82 -369.48 0c-17.79,0 -33.14,-6.38 -45.89,-19 -12.86,-12.72 -19.22,-27.97 -19.22,-45.76l0 -196.74c0,-17.55 6.36,-32.81 19.22,-45.52 12.75,-12.86 28.1,-19.22 45.89,-19.22zm981.86 326.24l-306.17 0 0 111.82 434.7 0 0 107.38 -563.11 0 0 -545.44 563.11 0 0 107.38 -434.7 0 0 111.45 306.17 0 0 107.4zm305.96 -326.24l0 438.06 434.59 0 0 107.38 -562.76 0 0 -545.44 128.18 0zm918.41 326.24l-306.16 0 0 111.82 434.7 0 0 107.38 -563.11 0 0 -545.44 563.11 0 0 107.38 -434.7 0 0 111.45 306.16 0 0 107.4zm305.97 -93.34l0 312.54 -128.18 0 0 -572.23 434.58 339.2 0 -312.41 128.19 0 0 571.87 -434.59 -338.97zm548.57 -232.9l433.63 0c17.55,0 32.68,6.36 45.53,19.22 12.74,12.72 19.21,27.97 19.21,45.52l0 480.71 -128.52 0 0 -165.75 -306.16 0 0 165.75 -128.42 0 0 -480.71c0,-17.55 6.36,-32.81 18.98,-45.52 12.75,-12.86 27.99,-19.22 45.76,-19.22zm369.84 272.67l0 -165.29 -306.16 0 0 165.29 306.16 0z"/>
   <polygon class="fil0" points="6081.19,211.76 6081.19,649.82 6515.76,649.82 6515.76,757.21 5953.01,757.21 5953.01,211.76 "/>
   <path class="fil1" d="M5706.29 376.1c59.75,0 108.2,48.45 108.2,108.21 0,59.75 -48.45,108.17 -108.2,108.17 -59.76,0 -108.18,-48.42 -108.18,-108.17 0,-59.76 48.42,-108.21 108.18,-108.21z"/>
   <path class="fil2" d="M2070.48 1010.08c0,15.64 -1.91,30.34 -5.81,44.06 -3.82,13.73 -9.69,26.1 -17.49,37.09 -7.79,11 -17.55,20.49 -29.23,28.49 -11.62,8 -25.28,14.22 -40.85,18.58 -8.95,2.53 -18.65,4.31 -29.04,5.33 -10.39,1.03 -21.66,1.51 -33.82,1.51l-60.59 0 0 -267.66 61.21 0c12.16,0 23.43,0.48 33.82,1.51 10.39,1.02 20.09,2.73 28.97,5.33 15.64,4.36 29.23,10.52 40.92,18.37 11.69,7.86 21.38,17.15 29.04,27.88 7.65,10.79 13.39,22.82 17.21,36.21 3.76,13.46 5.67,27.88 5.67,43.31zm-32.38 0c0,-25.68 -5.67,-46.53 -17.01,-62.51 -11.34,-15.99 -27.6,-27.33 -48.78,-33.96 -8.13,-2.6 -17.15,-4.31 -27.12,-5.26 -10.05,-0.89 -21.32,-1.37 -33.82,-1.37l-24.94 0 0 208.64 24.94 0c12.5,0 23.77,-0.48 33.82,-1.37 9.97,-0.95 18.99,-2.73 27.12,-5.26 21.18,-6.63 37.44,-18.31 48.78,-34.91 11.34,-16.67 17.01,-37.98 17.01,-64.01z"/>
   <path id="1" class="fil2" d="M2265.86 1145.14l108.83 -267.66 28.28 0 109.23 267.66 -35.45 0 -31.43 -80.34 -112.85 0 -31.57 80.34 -35.05 0zm122.76 -226.27c-12.02,33.34 -23.5,63.68 -34.36,90.94l-10.31 25.47 89.56 0 -10.32 -25.54c-11,-27.74 -22.2,-58 -33.75,-90.87l-0.82 0z"/>
   <polygon id="2" class="fil2" points="2791.49,1145.14 2758.7,1145.14 2758.7,906.99 2669.21,906.99 2669.21,877.48 2880.98,877.48 2880.98,906.99 2791.49,906.99 "/>
   <path id="3" class="fil2" d="M3283.85 1011.31c0,-18.03 -2.39,-33.89 -7.1,-47.62 -4.71,-13.73 -11.2,-25.21 -19.47,-34.43 -8.33,-9.23 -18.1,-16.19 -29.37,-20.9 -11.2,-4.71 -23.29,-7.1 -36.28,-7.1 -12.91,0 -25.07,2.39 -36.28,7.1 -11.27,4.71 -21.04,11.68 -29.37,20.9 -8.26,9.23 -14.75,20.7 -19.47,34.43 -4.71,13.73 -7.1,29.58 -7.1,47.62 0,18.03 2.39,33.82 7.17,47.55 4.78,13.66 11.34,25.08 19.61,34.29 8.33,9.23 18.1,16.13 29.37,20.77 11.2,4.71 23.36,7.03 36.48,7.03 12.92,0 25.01,-2.32 36.08,-7.03 11.13,-4.64 20.83,-11.55 29.16,-20.77 8.27,-9.22 14.76,-20.63 19.47,-34.29 4.71,-13.73 7.1,-29.51 7.1,-47.55zm32.38 0c0,20.29 -2.94,38.88 -8.74,55.88 -5.8,16.94 -14.15,31.57 -25.01,43.8 -10.86,12.29 -23.91,21.85 -39.14,28.76 -15.3,6.9 -32.38,10.32 -51.31,10.32 -19.6,0 -37.09,-3.41 -52.6,-10.32 -15.45,-6.9 -28.56,-16.47 -39.28,-28.76 -10.72,-12.23 -18.93,-26.85 -24.59,-43.8 -5.67,-17 -8.54,-35.59 -8.54,-55.88 0,-20.43 2.94,-39.14 8.81,-56.16 5.88,-17.01 14.22,-31.69 25.01,-44 10.79,-12.23 23.84,-21.79 39.21,-28.69 15.3,-6.9 32.52,-10.32 51.57,-10.32 19.47,0 36.89,3.41 52.26,10.32 15.45,6.89 28.49,16.46 39.21,28.69 10.73,12.3 18.93,26.98 24.6,44 5.66,17.01 8.53,35.73 8.53,56.16z"/>
   <path id="4" class="fil2" d="M3573.17 1034.47l0 110.67 -32.79 0 0 -267.66 69.47 0c11.76,0 21.72,0.41 29.93,1.3 8.19,0.88 15.71,2.25 22.47,4.1 18.72,5.06 33,13.73 42.83,25.96 9.91,12.16 14.83,27.46 14.83,45.7 0,10.86 -1.71,20.49 -5.2,29.04 -3.48,8.54 -8.33,15.99 -14.61,22.27 -6.29,6.29 -13.81,11.41 -22.55,15.38 -8.75,4.03 -18.44,6.96 -29.11,8.81l0 0.82 79.25 114.29 -32.8 0 -82.39 -110.67 -39.35 0zm0 -127.48l0 97.97 32.25 0c9.97,0 18.51,-0.35 25.61,-1.03 7.03,-0.62 13.39,-1.85 19,-3.55 11.34,-3.48 20.08,-9.02 26.23,-16.6 6.15,-7.59 9.23,-17.56 9.23,-29.79 -0.14,-11.48 -3.08,-20.7 -8.82,-27.74 -5.73,-6.96 -13.66,-12.02 -23.84,-15.1 -4.78,-1.43 -10.53,-2.53 -17.21,-3.14 -6.63,-0.67 -15.1,-1.02 -25.42,-1.02l-37.03 0z"/>
   <polygon id="5" class="fil2" points="4043.4,1145.14 4010.6,1145.14 4010.6,906.99 3921.11,906.99 3921.11,877.48 4132.89,877.48 4132.89,906.99 4043.4,906.99 "/>
   <polygon id="6" class="fil2" points="4371.51,1115.63 4508.83,1115.63 4508.83,1145.14 4338.73,1145.14 4338.73,877.48 4501.39,877.48 4501.39,906.99 4371.51,906.99 4371.51,993.48 4487.04,993.48 4487.04,1023 4371.51,1023 "/>
   <polygon id="7" class="fil2" points="4761.6,993.48 4901.37,993.48 4901.37,877.48 4934.17,877.48 4934.17,1145.14 4901.37,1145.14 4901.37,1023 4761.6,1023 4761.6,1145.14 4728.81,1145.14 4728.81,877.48 4761.6,877.48 "/>
   <path id="8" class="fil2" d="M5303.97 1026.69c16.39,23.63 32.58,47.88 48.64,72.82l1.16 0c-1.71,-25.96 -2.6,-52.54 -2.6,-79.59l0 -142.44 32.99 0 0 267.66 -32.79 0 -104.93 -149.2c-18.1,-26.03 -34.29,-50.28 -48.51,-72.83l-1.23 0c1.72,24.39 2.6,52.88 2.6,85.4l0 136.63 -32.79 0 0 -267.66 32.38 0 105.07 149.21z"/>
   <polygon id="9" class="fil2" points="5616.03,1145.14 5616.03,877.48 5648.82,877.48 5648.82,1145.14 "/>
   <polygon id="10" class="fil2" points="5880.83,1145.14 5880.83,877.48 5913.62,877.48 5913.62,1009.74 5914.02,1009.74 6036.99,877.48 6069.79,877.48 5944.9,1010.7 6077.17,1145.14 6044.37,1145.14 5914.02,1014.11 5913.62,1014.11 5913.62,1145.14 "/>
   <path id="11" class="fil2" d="M6266.07 1145.14l108.83 -267.66 28.28 0 109.23 267.66 -35.45 0 -31.43 -80.34 -112.85 0 -31.57 80.34 -35.05 0zm122.76 -226.27c-12.02,33.34 -23.5,63.68 -34.36,90.94l-10.31 25.47 89.56 0 -10.32 -25.54c-11,-27.74 -22.2,-58 -33.75,-90.87l-0.82 0z"/>
   <path class="fil3" d="M772.18 0.15l470.83 0c45.18,0 82.12,36.95 82.12,82.12l0 470.83c0,45.17 -36.94,82.12 -82.12,82.12l-470.83 0c-45.17,0 -82.11,-36.95 -82.11,-82.12l0 -470.83c0,-45.17 36.94,-82.12 82.11,-82.12z"/>
   <path class="fil4" d="M82.12 690.21l470.83 0c45.17,0 82.12,36.95 82.12,82.12l0 470.82c0,45.18 -36.95,82.13 -82.12,82.13l-470.83 0c-45.17,0 -82.12,-36.95 -82.12,-82.13l0 -470.82c0,-45.17 36.95,-82.12 82.12,-82.12z"/>
   <path class="fil5" d="M772.18 690.21l470.83 0c45.18,0 82.12,36.95 82.12,82.12l0 470.82c0,45.18 -36.94,82.13 -82.12,82.13l-470.83 0c-45.17,0 -82.11,-36.95 -82.11,-82.13l0 -470.82c0,-45.17 36.94,-82.12 82.11,-82.12z"/>
   <path class="fil6" d="M82.12 0l470.83 0c45.17,0 82.12,36.95 82.12,82.12l0 470.83c0,45.17 -36.95,82.12 -82.12,82.12l-470.83 0c-45.17,0 -82.12,-36.95 -82.12,-82.12l0 -470.83c0,-45.17 36.95,-82.12 82.12,-82.12z"/>
   <path class="fil7" d="M976.93 61.46c0,0 -136.89,79.67 -144.17,84.19l0 292.74 223.96 130.78c0,0 129.88,-75.78 139.57,-81.45l0 -298.16 -219.35 -128.1zm194.64 412.25l-101.95 59.53 0 -247.82 101.98 -59.61 -0.03 247.9zm-83.65 -162.47c-3.45,-5.87 -1.49,-13.43 4.39,-16.88l43 -25.27c5.87,-3.45 13.43,-1.49 16.89,4.39 3.44,5.87 1.48,13.43 -4.39,16.88l-43.01 25.26c-2.15,1.27 -4.53,1.81 -6.86,1.69 -4.01,-0.2 -7.84,-2.35 -10.02,-6.07zm65.04 11.53c3.43,5.88 1.46,13.44 -4.41,16.88l-43.04 25.2c-2.16,1.26 -4.55,1.8 -6.87,1.68 -4.01,-0.21 -7.83,-2.37 -10.01,-6.09 -3.44,-5.88 -1.47,-13.43 4.41,-16.87l43.04 -25.2c5.87,-3.45 13.43,-1.48 16.88,4.4zm-10.19 128.63c-0.76,16.75 -9.09,29.96 -18.59,29.53 -9.5,-0.43 -16.6,-14.35 -15.83,-31.1 0.76,-16.75 9.09,-29.97 18.59,-29.54 9.5,0.44 16.6,14.36 15.83,31.11z"/>
   <g>
    <path class="fil8" d="M357.2 982.82c3.29,13.39 2.97,5.53 2.97,21.27 0,15.15 -11.29,25.48 -19.9,34.09 -13.2,13.21 -19.93,19.91 -40.49,19.91 -19.6,0 -39.35,-18.76 -39.35,-40.27 0,-19.92 6.69,-26.37 19.44,-39.12 16.48,-16.48 19.81,-20.37 42.79,-20.37 5.58,0 8.37,1.72 12.82,2.75l40.05 -39.57c3.87,2.15 3.03,1.82 5.94,4.56 4.4,4.14 11.79,10.02 15.33,16.71l-39.58 40.05zm144.73 -189.23l0.53 0 21.53 21.05c-8.87,13.25 -37.04,26.69 -25.63,46.68 3.43,6 32.2,33.61 38.22,39.57 14.58,14.44 19.46,36.77 10,57.14 -13.15,28.31 -48.35,38.21 -73.85,21.35 -17.1,-11.31 -40.48,-46.68 -55.81,-46.68 -7.87,0 -15.06,3.86 -19.22,10.07 1.14,1.31 2.07,2.37 3.28,4.04 10.41,14.32 18.33,33 21.68,50.61 7.08,37.28 -2.73,74.25 -25.99,103.56 -6.27,7.9 -99.22,100.6 -108.08,107.9 -18.18,14.98 -47.41,27.67 -80.33,27.67 -48.58,0 -97.41,-32.59 -115.18,-76.09 -18.86,-46.14 -13.53,-92.61 17.38,-131.54 2.52,-3.17 3.62,-4.32 6.53,-7.2 2.8,-2.78 3.68,-4.62 6.38,-7.35l40.29 -40.26c23.62,-23.62 44.08,-47.66 71.33,-64.11 35.95,-21.72 89.03,-21.85 125.04,-0.01l15.72 9.9c7.7,-5.15 17.09,-18.3 38.43,-18.3 29.86,0 43.29,19.95 65.21,41.87 5.98,5.99 10.08,13.04 21.73,13.04 10.45,0 19.22,-9.52 19.22,-20.14 0,-10.9 -8.21,-15.99 -13.96,-21.73 -8.79,-8.79 -28.37,-26.96 -34.04,-36.43 -4.15,-6.91 -7.83,-16.41 -7.83,-26.95 0,-5.66 2.44,-15.14 4.29,-19.49 5.29,-12.44 25.01,-32.42 33.14,-38.16z"/>
    <path class="fil8" d="M290.62 1014.16c0,9.95 3.78,13.72 13.73,13.72 5.25,0 15.59,-12.47 21.29,-18.05 12.06,-11.8 -0.29,-22.21 -6.65,-22.21 -7.25,0 -12.21,7.18 -16.25,11.21 -3.29,3.3 -12.12,10.09 -12.12,15.34z"/>
   </g>
   <g>
    <path class="fil8" d="M251.14 344.68c0,-7.13 4.83,-12.77 11.79,-12.77 5.99,0 38.38,34.94 44.46,41.01 14.48,14.49 28.25,28.26 42.74,42.75l64.35 64.35c3.28,3.27 8.57,7.25 8.31,12.9 -0.19,4.03 -7.08,19.96 -23.04,3.81l-110.04 -110.04c-5.91,-5.91 -38.56,-36.06 -38.56,-42zm190.21 204.36l-10.54 0c-13.7,-1.03 -27.15,-6.01 -38.49,-14.45 -9.63,-7.17 -137.38,-136.49 -159.6,-158.71 -10.31,-10.31 -22.85,-19.41 -22.85,-30.22 0,-10.1 10.39,-17.76 15.97,-23.33 6.62,-6.63 12.53,-12.53 19.16,-19.16 58.98,-58.98 52.77,-62.67 84,-31.45l115.44 115.45c13.42,13.41 48.02,45.05 54.96,60 17.22,37.08 3.04,76.82 -33.09,94.99 -7.91,3.98 -16.38,6.22 -24.96,6.87zm-151.9 -244.65c0,-5.82 6.4,-10.68 11.53,-10.37 6.4,0.4 9.74,5.59 13.28,9.15 7.94,7.94 15.16,15.15 23.09,23.08l113.97 113.97c3.47,3.47 8.81,6.95 9.45,12.94 0.59,5.5 -3.83,12.36 -10.2,12.36 -7.21,0 -8.7,-3.27 -12.53,-7.12l-131.16 -131.16c-3.51,-3.51 -6.3,-6.31 -9.82,-9.82 -3.96,-3.95 -7.62,-5.67 -7.62,-13.03z"/>
    <path class="fil8" d="M333.66 192.4c0,28.87 5.85,49.6 20.82,71.53 44.94,65.89 145.15,67.21 191.41,3.14 11.57,-16.03 22.59,-40.45 22.59,-61.91l0 -0.86c0,-18.07 -0.21,-35.26 -7.86,-51.21 -4.22,2.83 -36.93,36.44 -43.48,42.98 -6.19,6.19 -26.64,27.89 -33.18,31.66 -22.96,13.27 -37.47,-1.61 -49.34,-13.49 -12.29,-12.29 -27.36,-26.26 -14.83,-49.71 5.49,-10.28 68.7,-67.85 75.01,-77.28 -15.21,-7.29 -32.89,-7.86 -50.11,-7.86 -16.33,0 -33.31,5.78 -44.88,11.13 -18.53,8.56 -33.35,22.52 -44.95,38.55 -11.62,16.04 -21.2,41.23 -21.2,63.31z"/>
    <path class="fil8" d="M170.57 508.76c-9.66,0 -15.63,-0.37 -23.37,-8.07 -16.18,-16.08 -8,-48.92 21.41,-48.92 24.4,0 36.43,30.5 19.92,48.41 -3.13,3.4 -11.76,8.57 -17.96,8.57zm-71.72 -33.4l0 9.82c0,30.91 32.95,63.87 63.87,63.87 19.57,0 30.44,-1.69 46.2,-13.74l67.52 -72c2.36,-2.34 4.4,-4.01 6.15,-6.62l-91.13 -91.62c-4.7,3.23 -8.39,8.51 -13.02,12.03l-65.28 61.46c-6.77,9.02 -14.3,21.65 -14.3,36.79z"/>
    <path class="fil8" d="M65.44 133.44l39.1 63.08c3.75,5.06 8.68,3.78 16.9,3.73 11.74,-0.08 9.25,-1.2 15.48,5.16 8.2,8.37 88.18,89.15 92.59,92.11 2.51,-1.69 23.5,-21.56 24.56,-25.54 -3.31,-4.95 -78.31,-78.83 -90.64,-91.13 -9.73,-9.71 -5.64,-2.39 -5.64,-25.79 0,-6.37 -8.02,-10.28 -14.42,-14.07 -6.22,-3.67 -11.22,-7.25 -17.43,-11.06 -6.33,-3.88 -11.41,-7.15 -17.46,-11.03l-18.48 -11c-2.19,1.47 -24.56,22.61 -24.56,25.54z"/>
   </g>
   <ellipse class="fil8" cx="1012.06" cy="1001.68" rx="288.96" ry="268.1"/>
   <path class="fil9" d="M1198.89 855.52l-362.17 0c-3.63,0 -6.55,2.93 -6.55,6.54l0 242.18c0,3.62 2.92,6.56 6.55,6.56l362.17 0c3.61,0 6.55,-2.94 6.55,-6.56l0 -242.18c0,-3.61 -2.94,-6.54 -6.55,-6.54z"/>
   <path class="fil9" d="M1016.98 715.74c-209.05,0 -297.9,65.03 -297.9,274.07 0,209.06 100.77,303.86 309.81,303.86 209.06,0 288.95,-87.78 288.95,-296.85 0,-209.05 -91.81,-281.08 -300.87,-281.08zm229.97 388.84c0,28.92 -23.45,52.37 -52.38,52.37l-118.97 0 0 29.24 60.08 0c10.84,0 19.63,8.78 19.63,19.63 0,10.85 -8.79,19.63 -19.63,19.63l-244.36 0c-10.85,0 -19.64,-8.78 -19.64,-19.63 0,-10.85 8.79,-19.63 19.64,-19.63l60.07 0 0 -29.24 -118.97 0c-28.93,0 -52.38,-23.45 -52.38,-52.37l0 -242.18c0,-28.92 23.45,-52.36 52.38,-52.36l362.16 0c28.93,0 52.38,23.44 52.38,52.36l0 242.18z"/>
  </g>
 </g>
</svg>
